<mxfile host="app.diagrams.net" agent="Mozilla/5.0 (Macintosh; Intel Mac OS X 10_15_7) AppleWebKit/605.1.15 (KHTML, like Gecko) Version/17.6 Safari/605.1.15" version="24.7.7">
  <diagram name="Page-1" id="3795zcSnCmuhOOe65CC1">
    <mxGraphModel dx="1418" dy="1744" grid="1" gridSize="10" guides="1" tooltips="1" connect="1" arrows="1" fold="1" page="1" pageScale="1" pageWidth="1100" pageHeight="850" math="0" shadow="0">
      <root>
        <mxCell id="0" />
        <mxCell id="1" style="locked=1;" parent="0" visible="0" />
        <mxCell id="-YP-eO5KwbZW0vEqe5pf-1" value="" style="shape=image;verticalLabelPosition=bottom;labelBackgroundColor=default;verticalAlign=top;aspect=fixed;imageAspect=0;image=https://slideuplift.com/wp-content/uploads/2020/06/resume-timeline-04.jpg;" vertex="1" parent="1">
          <mxGeometry x="190" y="-370" width="960" height="720" as="geometry" />
        </mxCell>
        <mxCell id="-YP-eO5KwbZW0vEqe5pf-2" value="Untitled Layer" parent="0" />
        <mxCell id="-YP-eO5KwbZW0vEqe5pf-62" value="" style="rounded=0;whiteSpace=wrap;html=1;fillColor=#f5f5f5;fontColor=#333333;strokeColor=none;gradientColor=#E6E6E6;gradientDirection=east;" vertex="1" parent="-YP-eO5KwbZW0vEqe5pf-2">
          <mxGeometry x="220" y="-10" width="890" height="200" as="geometry" />
        </mxCell>
        <mxCell id="-YP-eO5KwbZW0vEqe5pf-29" value="" style="rounded=0;whiteSpace=wrap;html=1;fontStyle=1;fillColor=#B3B3B3;strokeColor=none;strokeWidth=4;fontColor=#333333;" vertex="1" parent="-YP-eO5KwbZW0vEqe5pf-2">
          <mxGeometry x="440" y="114" width="650" height="43" as="geometry" />
        </mxCell>
        <mxCell id="-YP-eO5KwbZW0vEqe5pf-3" value="2008" style="rounded=0;whiteSpace=wrap;html=1;fontStyle=1;fillColor=#CCCCCC;fontColor=#666666;strokeColor=#FFFFFF;strokeWidth=4;" vertex="1" parent="-YP-eO5KwbZW0vEqe5pf-2">
          <mxGeometry x="280" y="160" width="60" height="20" as="geometry" />
        </mxCell>
        <mxCell id="-YP-eO5KwbZW0vEqe5pf-8" value="2013" style="rounded=0;whiteSpace=wrap;html=1;fontStyle=1;fillColor=#CCCCCC;fontColor=#666666;strokeColor=#FFFFFF;strokeWidth=4;" vertex="1" parent="-YP-eO5KwbZW0vEqe5pf-2">
          <mxGeometry x="380" y="160" width="60" height="20" as="geometry" />
        </mxCell>
        <mxCell id="-YP-eO5KwbZW0vEqe5pf-9" value="2014" style="rounded=0;whiteSpace=wrap;html=1;fontStyle=1;fillColor=#CCCCCC;fontColor=#666666;strokeColor=#FFFFFF;strokeWidth=4;" vertex="1" parent="-YP-eO5KwbZW0vEqe5pf-2">
          <mxGeometry x="440" y="160" width="60" height="20" as="geometry" />
        </mxCell>
        <mxCell id="-YP-eO5KwbZW0vEqe5pf-10" value="2015" style="rounded=0;whiteSpace=wrap;html=1;fontStyle=1;fillColor=#CCCCCC;fontColor=#666666;strokeColor=#FFFFFF;strokeWidth=4;" vertex="1" parent="-YP-eO5KwbZW0vEqe5pf-2">
          <mxGeometry x="500" y="160" width="60" height="20" as="geometry" />
        </mxCell>
        <mxCell id="-YP-eO5KwbZW0vEqe5pf-11" value="2016" style="rounded=0;whiteSpace=wrap;html=1;fontStyle=1;fillColor=#CCCCCC;fontColor=#666666;strokeColor=#FFFFFF;strokeWidth=4;" vertex="1" parent="-YP-eO5KwbZW0vEqe5pf-2">
          <mxGeometry x="560" y="160" width="60" height="20" as="geometry" />
        </mxCell>
        <mxCell id="-YP-eO5KwbZW0vEqe5pf-12" value="2017" style="rounded=0;whiteSpace=wrap;html=1;fontStyle=1;fillColor=#CCCCCC;fontColor=#666666;strokeColor=#FFFFFF;strokeWidth=4;" vertex="1" parent="-YP-eO5KwbZW0vEqe5pf-2">
          <mxGeometry x="620" y="160" width="60" height="20" as="geometry" />
        </mxCell>
        <mxCell id="-YP-eO5KwbZW0vEqe5pf-13" value="2018" style="rounded=0;whiteSpace=wrap;html=1;fontStyle=1;fillColor=#CCCCCC;fontColor=#666666;strokeColor=#FFFFFF;strokeWidth=4;" vertex="1" parent="-YP-eO5KwbZW0vEqe5pf-2">
          <mxGeometry x="680" y="160" width="60" height="20" as="geometry" />
        </mxCell>
        <mxCell id="-YP-eO5KwbZW0vEqe5pf-14" value="2019" style="rounded=0;whiteSpace=wrap;html=1;fontStyle=1;fillColor=#CCCCCC;fontColor=#666666;strokeColor=#FFFFFF;strokeWidth=4;" vertex="1" parent="-YP-eO5KwbZW0vEqe5pf-2">
          <mxGeometry x="740" y="160" width="60" height="20" as="geometry" />
        </mxCell>
        <mxCell id="-YP-eO5KwbZW0vEqe5pf-15" value="2020" style="rounded=0;whiteSpace=wrap;html=1;fontStyle=1;fillColor=#CCCCCC;fontColor=#666666;strokeColor=#FFFFFF;strokeWidth=4;" vertex="1" parent="-YP-eO5KwbZW0vEqe5pf-2">
          <mxGeometry x="800" y="160" width="60" height="20" as="geometry" />
        </mxCell>
        <mxCell id="-YP-eO5KwbZW0vEqe5pf-16" value="2021" style="rounded=0;whiteSpace=wrap;html=1;fontStyle=1;fillColor=#CCCCCC;fontColor=#666666;strokeColor=#FFFFFF;strokeWidth=4;" vertex="1" parent="-YP-eO5KwbZW0vEqe5pf-2">
          <mxGeometry x="860" y="160" width="60" height="20" as="geometry" />
        </mxCell>
        <mxCell id="-YP-eO5KwbZW0vEqe5pf-17" value="2022" style="rounded=0;whiteSpace=wrap;html=1;fontStyle=1;fillColor=#CCCCCC;fontColor=#666666;strokeColor=#FFFFFF;strokeWidth=4;" vertex="1" parent="-YP-eO5KwbZW0vEqe5pf-2">
          <mxGeometry x="920" y="160" width="60" height="20" as="geometry" />
        </mxCell>
        <mxCell id="-YP-eO5KwbZW0vEqe5pf-18" value="2023" style="rounded=0;whiteSpace=wrap;html=1;fontStyle=1;fillColor=#CCCCCC;fontColor=#666666;strokeColor=#FFFFFF;strokeWidth=4;" vertex="1" parent="-YP-eO5KwbZW0vEqe5pf-2">
          <mxGeometry x="980" y="160" width="60" height="20" as="geometry" />
        </mxCell>
        <mxCell id="-YP-eO5KwbZW0vEqe5pf-19" value="2024" style="rounded=0;whiteSpace=wrap;html=1;fontStyle=1;fillColor=#CCCCCC;fontColor=#666666;strokeColor=#FFFFFF;strokeWidth=4;" vertex="1" parent="-YP-eO5KwbZW0vEqe5pf-2">
          <mxGeometry x="1040" y="160" width="60" height="20" as="geometry" />
        </mxCell>
        <mxCell id="-YP-eO5KwbZW0vEqe5pf-20" value="..." style="rounded=0;whiteSpace=wrap;html=1;fontStyle=1;fillColor=#CCCCCC;fontColor=#666666;strokeColor=#FFFFFF;strokeWidth=4;" vertex="1" parent="-YP-eO5KwbZW0vEqe5pf-2">
          <mxGeometry x="240" y="160" width="40" height="20" as="geometry" />
        </mxCell>
        <mxCell id="-YP-eO5KwbZW0vEqe5pf-21" value="" style="rounded=0;whiteSpace=wrap;html=1;fontStyle=1;fillColor=#97D077;strokeColor=none;strokeWidth=4;" vertex="1" parent="-YP-eO5KwbZW0vEqe5pf-2">
          <mxGeometry x="300" y="137" width="130" height="20" as="geometry" />
        </mxCell>
        <mxCell id="-YP-eO5KwbZW0vEqe5pf-23" value="" style="rounded=0;whiteSpace=wrap;html=1;fontStyle=1;fillColor=#7EA6E0;strokeColor=none;strokeWidth=4;" vertex="1" parent="-YP-eO5KwbZW0vEqe5pf-2">
          <mxGeometry x="450" y="137" width="180" height="20" as="geometry" />
        </mxCell>
        <mxCell id="-YP-eO5KwbZW0vEqe5pf-24" value="" style="rounded=0;whiteSpace=wrap;html=1;fontStyle=1;fillColor=#FFD966;strokeColor=none;strokeWidth=4;" vertex="1" parent="-YP-eO5KwbZW0vEqe5pf-2">
          <mxGeometry x="630" y="137" width="40" height="20" as="geometry" />
        </mxCell>
        <mxCell id="-YP-eO5KwbZW0vEqe5pf-25" value="" style="rounded=0;whiteSpace=wrap;html=1;fontStyle=1;fillColor=#FFB570;strokeColor=none;strokeWidth=4;" vertex="1" parent="-YP-eO5KwbZW0vEqe5pf-2">
          <mxGeometry x="670" y="137" width="110" height="20" as="geometry" />
        </mxCell>
        <mxCell id="-YP-eO5KwbZW0vEqe5pf-26" value="" style="rounded=0;whiteSpace=wrap;html=1;fontStyle=1;fillColor=#EA6B66;strokeColor=none;strokeWidth=4;" vertex="1" parent="-YP-eO5KwbZW0vEqe5pf-2">
          <mxGeometry x="780" y="137" width="100" height="20" as="geometry" />
        </mxCell>
        <mxCell id="-YP-eO5KwbZW0vEqe5pf-27" value="" style="rounded=0;whiteSpace=wrap;html=1;fontStyle=1;fillColor=#7EA6E0;strokeColor=none;strokeWidth=4;" vertex="1" parent="-YP-eO5KwbZW0vEqe5pf-2">
          <mxGeometry x="880" y="137" width="170" height="20" as="geometry" />
        </mxCell>
        <mxCell id="-YP-eO5KwbZW0vEqe5pf-28" value="" style="rounded=0;whiteSpace=wrap;html=1;fontStyle=1;fillColor=#B5739D;strokeColor=none;strokeWidth=4;" vertex="1" parent="-YP-eO5KwbZW0vEqe5pf-2">
          <mxGeometry x="1050" y="137" width="40" height="20" as="geometry" />
        </mxCell>
        <mxCell id="-YP-eO5KwbZW0vEqe5pf-36" style="rounded=0;orthogonalLoop=1;jettySize=auto;html=1;edgeStyle=orthogonalEdgeStyle;endArrow=oval;endFill=1;fillColor=#f5f5f5;strokeColor=#666666;" edge="1" parent="-YP-eO5KwbZW0vEqe5pf-2" target="-YP-eO5KwbZW0vEqe5pf-37" source="-YP-eO5KwbZW0vEqe5pf-21">
          <mxGeometry relative="1" as="geometry">
            <mxPoint x="335" y="137" as="sourcePoint" />
            <Array as="points" />
            <mxPoint x="335" y="95" as="targetPoint" />
          </mxGeometry>
        </mxCell>
        <mxCell id="-YP-eO5KwbZW0vEqe5pf-37" value="&lt;b&gt;PRIME Strategies&lt;/b&gt;&lt;div&gt;IT Manager&lt;/div&gt;" style="text;html=1;align=center;verticalAlign=middle;whiteSpace=wrap;rounded=0;perimeterSpacing=5;" vertex="1" parent="-YP-eO5KwbZW0vEqe5pf-2">
          <mxGeometry x="305" y="60" width="120" height="40" as="geometry" />
        </mxCell>
        <mxCell id="-YP-eO5KwbZW0vEqe5pf-38" style="rounded=0;orthogonalLoop=1;jettySize=auto;html=1;edgeStyle=orthogonalEdgeStyle;endArrow=oval;endFill=1;fillColor=#f5f5f5;strokeColor=#666666;" edge="1" parent="-YP-eO5KwbZW0vEqe5pf-2" target="-YP-eO5KwbZW0vEqe5pf-39" source="-YP-eO5KwbZW0vEqe5pf-23">
          <mxGeometry relative="1" as="geometry">
            <mxPoint x="520" y="137" as="sourcePoint" />
            <Array as="points">
              <mxPoint x="520" y="100" />
              <mxPoint x="520" y="100" />
            </Array>
          </mxGeometry>
        </mxCell>
        <mxCell id="-YP-eO5KwbZW0vEqe5pf-39" value="&lt;b&gt;Microsoft&lt;/b&gt;&lt;div&gt;DevOps / SRE&lt;br&gt;&lt;/div&gt;" style="text;html=1;align=center;verticalAlign=middle;whiteSpace=wrap;rounded=0;perimeterSpacing=5;" vertex="1" parent="-YP-eO5KwbZW0vEqe5pf-2">
          <mxGeometry x="440" y="10" width="160" height="40" as="geometry" />
        </mxCell>
        <mxCell id="-YP-eO5KwbZW0vEqe5pf-40" value="&lt;b&gt;Scalar&lt;/b&gt;&lt;div&gt;Cloud Architect&lt;br&gt;&lt;/div&gt;" style="text;html=1;align=center;verticalAlign=middle;whiteSpace=wrap;rounded=0;perimeterSpacing=5;" vertex="1" parent="-YP-eO5KwbZW0vEqe5pf-2">
          <mxGeometry x="590" y="60" width="120" height="40" as="geometry" />
        </mxCell>
        <mxCell id="-YP-eO5KwbZW0vEqe5pf-41" style="rounded=0;orthogonalLoop=1;jettySize=auto;html=1;edgeStyle=orthogonalEdgeStyle;endArrow=oval;endFill=1;fillColor=#f5f5f5;strokeColor=#666666;" edge="1" parent="-YP-eO5KwbZW0vEqe5pf-2" source="-YP-eO5KwbZW0vEqe5pf-24" target="-YP-eO5KwbZW0vEqe5pf-40">
          <mxGeometry relative="1" as="geometry">
            <mxPoint x="530" y="147" as="sourcePoint" />
            <Array as="points">
              <mxPoint x="650" y="90" />
              <mxPoint x="650" y="90" />
            </Array>
            <mxPoint x="530" y="105" as="targetPoint" />
          </mxGeometry>
        </mxCell>
        <mxCell id="-YP-eO5KwbZW0vEqe5pf-42" style="rounded=0;orthogonalLoop=1;jettySize=auto;html=1;edgeStyle=orthogonalEdgeStyle;endArrow=oval;endFill=1;fillColor=#f5f5f5;strokeColor=#666666;" edge="1" target="-YP-eO5KwbZW0vEqe5pf-43" parent="-YP-eO5KwbZW0vEqe5pf-2" source="-YP-eO5KwbZW0vEqe5pf-45">
          <mxGeometry relative="1" as="geometry">
            <mxPoint x="380" y="50" as="sourcePoint" />
            <Array as="points">
              <mxPoint x="260" y="110" />
              <mxPoint x="260" y="110" />
            </Array>
            <mxPoint x="270" y="120" as="targetPoint" />
          </mxGeometry>
        </mxCell>
        <mxCell id="-YP-eO5KwbZW0vEqe5pf-43" value="&lt;b&gt;Canwest&lt;/b&gt;&lt;div&gt;Sys Admin&lt;/div&gt;" style="text;html=1;align=center;verticalAlign=middle;whiteSpace=wrap;rounded=0;perimeterSpacing=5;" vertex="1" parent="-YP-eO5KwbZW0vEqe5pf-2">
          <mxGeometry x="200" y="10" width="120" height="40" as="geometry" />
        </mxCell>
        <mxCell id="-YP-eO5KwbZW0vEqe5pf-45" value="" style="rounded=0;whiteSpace=wrap;html=1;fontStyle=1;strokeWidth=4;strokeColor=none;fillColor=#FFD966;" vertex="1" parent="-YP-eO5KwbZW0vEqe5pf-2">
          <mxGeometry x="240" y="137" width="60" height="20" as="geometry" />
        </mxCell>
        <mxCell id="-YP-eO5KwbZW0vEqe5pf-46" value="&lt;b&gt;WorkSafe BC&lt;/b&gt;&lt;div&gt;SRE / Agile Lead&lt;br&gt;&lt;/div&gt;" style="text;html=1;align=center;verticalAlign=middle;whiteSpace=wrap;rounded=0;perimeterSpacing=5;" vertex="1" parent="-YP-eO5KwbZW0vEqe5pf-2">
          <mxGeometry x="660" y="10" width="120" height="40" as="geometry" />
        </mxCell>
        <mxCell id="-YP-eO5KwbZW0vEqe5pf-47" style="rounded=0;orthogonalLoop=1;jettySize=auto;html=1;edgeStyle=orthogonalEdgeStyle;endArrow=oval;endFill=1;fillColor=#f5f5f5;strokeColor=#666666;" edge="1" parent="-YP-eO5KwbZW0vEqe5pf-2" target="-YP-eO5KwbZW0vEqe5pf-46" source="-YP-eO5KwbZW0vEqe5pf-25">
          <mxGeometry relative="1" as="geometry">
            <mxPoint x="720" y="87" as="sourcePoint" />
            <Array as="points">
              <mxPoint x="720" y="110" />
              <mxPoint x="720" y="110" />
            </Array>
            <mxPoint x="600" y="55" as="targetPoint" />
          </mxGeometry>
        </mxCell>
        <mxCell id="-YP-eO5KwbZW0vEqe5pf-48" value="&lt;b&gt;Lululemon&lt;/b&gt;&lt;div&gt;Platform Architect&lt;br&gt;&lt;/div&gt;" style="text;html=1;align=center;verticalAlign=middle;whiteSpace=wrap;rounded=0;perimeterSpacing=5;" vertex="1" parent="-YP-eO5KwbZW0vEqe5pf-2">
          <mxGeometry x="770" y="60" width="120" height="40" as="geometry" />
        </mxCell>
        <mxCell id="-YP-eO5KwbZW0vEqe5pf-49" style="rounded=0;orthogonalLoop=1;jettySize=auto;html=1;edgeStyle=orthogonalEdgeStyle;endArrow=oval;endFill=1;fillColor=#f5f5f5;strokeColor=#666666;" edge="1" parent="-YP-eO5KwbZW0vEqe5pf-2" target="-YP-eO5KwbZW0vEqe5pf-48" source="-YP-eO5KwbZW0vEqe5pf-26">
          <mxGeometry relative="1" as="geometry">
            <mxPoint x="820" y="187" as="sourcePoint" />
            <Array as="points">
              <mxPoint x="830" y="120" />
              <mxPoint x="830" y="120" />
            </Array>
            <mxPoint x="700" y="105" as="targetPoint" />
          </mxGeometry>
        </mxCell>
        <mxCell id="-YP-eO5KwbZW0vEqe5pf-52" value="" style="image;aspect=fixed;html=1;points=[];align=center;fontSize=12;image=img/lib/azure2/other/Azure_A.svg;" vertex="1" parent="-YP-eO5KwbZW0vEqe5pf-2">
          <mxGeometry x="457" y="117.5" width="15.91" height="15" as="geometry" />
        </mxCell>
        <mxCell id="-YP-eO5KwbZW0vEqe5pf-53" value="" style="outlineConnect=0;dashed=0;verticalLabelPosition=bottom;verticalAlign=top;align=center;html=1;shape=mxgraph.aws3.cloud_2;fillColor=#F58534;gradientColor=none;aspect=fixed;" vertex="1" parent="-YP-eO5KwbZW0vEqe5pf-2">
          <mxGeometry x="780" y="117.5" width="15" height="15" as="geometry" />
        </mxCell>
        <mxCell id="-YP-eO5KwbZW0vEqe5pf-54" value="" style="image;aspect=fixed;html=1;points=[];align=center;fontSize=12;image=img/lib/azure2/other/Azure_A.svg;" vertex="1" parent="-YP-eO5KwbZW0vEqe5pf-2">
          <mxGeometry x="930" y="117.5" width="15.91" height="15" as="geometry" />
        </mxCell>
        <mxCell id="-YP-eO5KwbZW0vEqe5pf-55" value="&lt;b&gt;Teck Resources&lt;/b&gt;&lt;div&gt;Sr. Cloud Developer&lt;br&gt;&lt;/div&gt;" style="text;html=1;align=center;verticalAlign=middle;whiteSpace=wrap;rounded=0;perimeterSpacing=5;" vertex="1" parent="-YP-eO5KwbZW0vEqe5pf-2">
          <mxGeometry x="905" y="10" width="120" height="40" as="geometry" />
        </mxCell>
        <mxCell id="-YP-eO5KwbZW0vEqe5pf-56" style="rounded=0;orthogonalLoop=1;jettySize=auto;html=1;edgeStyle=orthogonalEdgeStyle;endArrow=oval;endFill=1;fillColor=#f5f5f5;strokeColor=#666666;" edge="1" parent="-YP-eO5KwbZW0vEqe5pf-2" target="-YP-eO5KwbZW0vEqe5pf-55" source="-YP-eO5KwbZW0vEqe5pf-27">
          <mxGeometry relative="1" as="geometry">
            <mxPoint x="940" y="87" as="sourcePoint" />
            <Array as="points" />
            <mxPoint x="810" y="55" as="targetPoint" />
          </mxGeometry>
        </mxCell>
        <mxCell id="-YP-eO5KwbZW0vEqe5pf-57" value="&lt;b&gt;RAVL&lt;/b&gt;&lt;div&gt;DevSecOps&lt;br&gt;&lt;/div&gt;" style="text;html=1;align=center;verticalAlign=middle;whiteSpace=wrap;rounded=0;perimeterSpacing=5;" vertex="1" parent="-YP-eO5KwbZW0vEqe5pf-2">
          <mxGeometry x="1010" y="60" width="120" height="40" as="geometry" />
        </mxCell>
        <mxCell id="-YP-eO5KwbZW0vEqe5pf-58" style="rounded=0;orthogonalLoop=1;jettySize=auto;html=1;edgeStyle=orthogonalEdgeStyle;endArrow=oval;endFill=1;fillColor=#f5f5f5;strokeColor=#666666;" edge="1" parent="-YP-eO5KwbZW0vEqe5pf-2" target="-YP-eO5KwbZW0vEqe5pf-57" source="-YP-eO5KwbZW0vEqe5pf-28">
          <mxGeometry relative="1" as="geometry">
            <mxPoint x="1070" y="137" as="sourcePoint" />
            <Array as="points" />
            <mxPoint x="940" y="105" as="targetPoint" />
          </mxGeometry>
        </mxCell>
        <mxCell id="-YP-eO5KwbZW0vEqe5pf-59" value="" style="outlineConnect=0;dashed=0;verticalLabelPosition=bottom;verticalAlign=top;align=center;html=1;shape=mxgraph.aws3.cloud_2;fillColor=#F58534;gradientColor=none;aspect=fixed;" vertex="1" parent="-YP-eO5KwbZW0vEqe5pf-2">
          <mxGeometry x="1050" y="117.5" width="15" height="15" as="geometry" />
        </mxCell>
        <mxCell id="-YP-eO5KwbZW0vEqe5pf-63" value="..." style="rounded=0;whiteSpace=wrap;html=1;fontStyle=1;fillColor=#CCCCCC;fontColor=#666666;strokeColor=#FFFFFF;strokeWidth=4;" vertex="1" parent="-YP-eO5KwbZW0vEqe5pf-2">
          <mxGeometry x="340" y="160" width="40" height="20" as="geometry" />
        </mxCell>
      </root>
    </mxGraphModel>
  </diagram>
</mxfile>
